<?xml version="1.0" encoding="utf-8"?>
<!-- Generator: Adobe Illustrator 27.5.0, SVG Export Plug-In . SVG Version: 6.00 Build 0)  -->
<svg version="1.1" id="Layer_1" xmlns="http://www.w3.org/2000/svg" xmlns:xlink="http://www.w3.org/1999/xlink" x="0px" y="0px"
	 viewBox="0 0 489.3 100.3" style="enable-background:new 0 0 489.3 100.3;" xml:space="preserve">
<style type="text/css">
	.st0{fill:#FFFFFF;}
</style>
<g>
	<path class="st0" d="M0,61.3c0.2,0.8,0.4,1.7,0.7,2.8c0.1-0.6,0.1-0.9,0.2-1.3C1.2,53.1,6,45.7,13.2,39.7c7.9-6.6,17.1-9,27.3-8
		c11.5,1.2,20.5,6.6,27.2,16c0.1,0.1,0.1,0.2,0.2,0.4c-5.1,2.8-10.1,5.5-15.3,8.4c-0.2-0.2-0.5-0.5-0.7-0.9c-5.1-6.6-12-8.8-19.8-7
		c-7.1,1.6-11.5,6.4-13.3,13.7c-1.9,8,3.4,18.9,14.5,20.6c7.9,1.2,14.3-1.2,19.1-7.8c0.1-0.1,0.2-0.2,0.3-0.3
		c5.1,2.8,10.2,5.6,15.3,8.5c0,0.1-0.1,0.4-0.3,0.7C61.4,92.8,53,98.2,42.4,99.9c-2.6,0.4-5.4,0.2-8.1,0.1c-12.4-0.2-21.6-6-28.4-16
		c-1.9-2.8-3.4-5.8-4.2-9c-0.4-1.5-0.5-3-0.7-4.5c-0.1-0.8,0-1.5-0.2-2.3C0.5,69,0.3,69.9,0,70.8C0,67.6,0,64.5,0,61.3z"/>
	<path class="st0" d="M489.3,0c-2.5,2.5-4.6,4.7-6.8,6.9c-2.2,2.2-4.5,4.3-6.7,6.6c-0.7,0.7-1.5,1-2.6,1c-77.3,0-154.5,0-231.8,0
		c-4,0-8.1,0.1-12.1,0.1c-0.2,0-0.3,0-0.6-0.1c0.2-0.3,0.3-0.5,0.4-0.6c4.4-4.4,8.8-8.7,13.3-13c0.4-0.4,1.2-0.7,1.8-0.8
		c2.6-0.1,5.2,0,7.9,0c78.2,0,156.5,0,234.7,0C487.6,0,488.3,0,489.3,0z"/>
	<path class="st0" d="M364.8,99.5c-1.9,0-3.6,0-5.3,0c-4.3,0-8.7,0-13,0c-1,0-1.6-0.4-2-1.3c-1.3-3-2.6-6-4-9
		c-0.9-2.1-1.9-4.3-2.8-6.4c-0.1-0.3-0.7-0.6-1-0.6c-5.3,0-10.6,0-15.9,0c-0.9,0-1,0.3-1,1.1c0,5.2,0,10.4,0,15.8
		c-0.6,0-1.1,0-1.7,0c-5,0-9.9,0-14.9,0.1c-1.2,0-1.4-0.4-1.4-1.4c0-20.7,0-41.4,0-62.1c0-3.1,0-3.1,3.1-3.1c12.4,0,24.7-0.1,37.1,0
		c13,0.1,22.3,8.5,24.7,19.5c2,8.9-0.7,16.6-7.2,23c-0.9,0.9-2,1.7-3,2.4c-0.7,0.5-0.9,1-0.6,1.8c1.9,4.1,3.7,8.3,5.5,12.4
		c1,2.2,2,4.4,3,6.6C364.6,98.7,364.6,99.1,364.8,99.5z M330.9,47.3c0,0,0,0.1,0,0.1c-3.4,0-6.8,0-10.2,0c-0.7,0-0.9,0.2-0.9,0.9
		c0,6.2,0,12.3-0.1,18.5c0,0.7,0.3,0.9,1,0.9c6.2,0,12.3,0,18.5,0c1.4,0,2.8-0.1,4-0.6c5.3-1.9,8.5-8.6,5.5-14.4
		c-1.9-3.5-4.7-5.5-8.8-5.4C336.8,47.3,333.9,47.3,330.9,47.3z"/>
	<path class="st0" d="M214.6,99.5c-1.2,0-2.3,0-3.3,0c-5.1,0-10.2,0-15.2,0c-0.9,0-1.5-0.3-1.8-1.1c-2.2-5.2-4.4-10.3-6.7-15.4
		c-0.1-0.3-0.6-0.6-1-0.6c-5.4,0-10.7,0-16.1,0c-0.9,0-0.9,0.5-0.9,1.1c0,4.8,0,9.6,0,14.4c0,1.1-0.2,1.5-1.4,1.5
		c-5-0.1-10.1,0-15.1,0c-1.2,0-1.4-0.3-1.4-1.5c0-21.3,0-42.6,0-63.9c0-0.8,0.1-1.3,1.1-1.3c13.2,0,26.5-0.1,39.7,0.1
		c12.3,0.2,20.9,7.7,24.1,18.9c1.9,6.5,0.3,12.7-3,18.5c-1.8,3.1-4.2,5.7-7.3,7.6c-0.8,0.5-0.8,1.1-0.4,1.8
		c1.7,3.9,3.4,7.7,5.2,11.6c1.1,2.5,2.2,4.9,3.4,7.4C214.4,98.8,214.4,99.1,214.6,99.5z M169.5,47.4c0,6.7,0,13.1,0,19.6
		c0,0.3,0.5,0.8,0.8,0.8c6.6,0.1,13.2,0.1,19.9,0c2.6,0,4.6-1.3,6.6-3.1c3.5-3.3,4-11.4-1-15.2c-2-1.5-4.2-2.1-6.6-2.1
		c-5.9,0-11.7,0.1-17.6,0.1C170.9,47.4,170.3,47.4,169.5,47.4z"/>
	<path class="st0" d="M410.1,31.5c9.8-0.2,18.3,3.2,25.5,9.8c6.2,5.7,9.9,12.8,10.9,21.2c1,9.2-2,17.3-7.6,24.3
		c-5.6,7.1-13,11.6-22,13.1c-2.1,0.4-4.2,0.3-6.3,0.4c-18.4,0.5-32.3-13-35.8-28c-2-8.9,0-16.8,4.7-24.3c5.7-9,14.2-14,24.4-16.1
		C405.9,31.5,408,31.6,410.1,31.5z M409.7,83.1c5.4,0.2,9.6-1.3,13.2-4.5c3.9-3.6,6.2-8.1,5.7-13.3c-1.3-13.4-15.4-20.8-27.2-14.4
		c-8.4,4.5-13.9,17.1-4.5,27C400.5,81.6,405,83.3,409.7,83.1z"/>
	<path class="st0" d="M228.3,99.1c0-1.8,0-3.4,0-5.1c0-19.5,0-39.1,0-58.6c0-2.7,0-2.7,2.7-2.7c12.6,0,25.2-0.3,37.7,0.2
		c10.6,0.4,18.3,6.4,22,16c3.8,9.7,0.8,20.5-7.2,27.4c-4.6,3.9-10,5.8-15.9,6c-6.8,0.2-13.6,0.1-20.4,0c-0.8,0-1.1,0.2-1.1,1
		c0,4.7,0,9.5,0,14.2c0,1.6,0,1.7-1.5,1.7c-5.1,0-10.2,0-15.2,0C229.1,99.2,228.7,99.2,228.3,99.1z M256.7,47.3
		C256.7,47.3,256.7,47.3,256.7,47.3c-3.2,0.1-6.3,0.1-9.5,0c-0.8,0-1.1,0.2-1.1,1c0,6,0.1,12,0,18c0,1,0.3,1.4,1.3,1.4
		c5.7,0,11.3-0.1,17,0c5.8,0.1,11.1-4.9,10.6-11c-0.4-5.2-4.5-9.4-9.8-9.4C262.4,47.3,259.5,47.3,256.7,47.3z"/>
	<path class="st0" d="M144.6,99.2c-0.5,0-0.8,0.1-1.2,0.1c-5.5,0-10.9,0-16.4,0c-1.1,0-1.7-0.3-2.1-1.5c-1-2.8-2.2-5.6-3.4-8.3
		c-0.2-0.4-0.9-0.8-1.3-0.8c-8.9-0.1-17.8,0-26.7-0.1c-0.7,0-1,0.2-1.3,0.9c-1,2.7-2.1,5.3-3.2,8c-0.8,2-0.9,2-3,2
		c-5.1,0-10.2,0-15.4,0c-0.4,0-0.8,0-1.3,0c0-0.3,0-0.5,0.1-0.7c9.4-21.7,18.7-43.4,28.1-65c0.3-0.7,0.7-1,1.5-1c5.3,0,10.7,0,16,0
		c0.7,0,1.1,0.2,1.4,0.9c3.6,8.5,7.3,17,10.9,25.4c5.2,12.2,10.5,24.4,15.8,36.5C143.5,96.8,144,97.9,144.6,99.2z M115.8,75.8
		c-3-7.7-5.9-15.3-8.9-23.1c-3.1,7.8-6,15.4-9.1,23.1C104,75.8,109.8,75.8,115.8,75.8z"/>
	<path class="st0" d="M464.1,39.6c0.9-1.8,1.6-3.3,2.4-4.8c0.4-0.9,0.9-1.6,2-1.5c0.8,0,1.2,0.4,1.2,1.1c0,2.2,0,4.3-0.1,6.5
		c0,0.5-0.5,0.9-0.7,1.3c-0.3-0.5-0.8-0.9-0.9-1.4c-0.1-1.6,0-3.3,0-5c-0.2,0-0.3-0.1-0.5-0.1c-0.5,1.1-1.1,2.2-1.6,3.4
		c-0.3,0.6-0.5,1.3-0.8,1.8c-0.7,1-1.6,0.9-2.1-0.2c-0.7-1.6-1.4-3.2-2.1-4.7c-0.1,0-0.3,0-0.4,0c-0.1,0.7-0.2,1.5-0.2,2.2
		c0,1,0,2.1-0.1,3.1c0,0.3-0.4,0.6-0.7,0.9c-0.3-0.3-0.7-0.6-0.7-0.9c-0.1-1.2-0.1-2.4-0.1-3.6c0-1-0.1-1.9,0-2.9
		c0.1-0.5,0.3-1.4,0.6-1.4c0.6,0,1.6,0.1,1.9,0.5c0.7,0.9,1.2,2.1,1.7,3.1C463.3,37.7,463.6,38.5,464.1,39.6z"/>
	<path class="st0" d="M455,34.5c0,1.8,0,3.5,0,5.2c0,0.6-0.1,1.2-0.3,1.7c-0.1,0.3-0.5,0.6-0.8,0.6c-0.2,0-0.7-0.4-0.7-0.7
		c-0.1-1.2-0.2-2.4-0.3-3.6c0-0.5,0-1.1,0-1.6c0.1-1.2-0.1-2-1.6-1.7c-0.2,0-0.5-0.3-0.7-0.5c0.3-0.2,0.5-0.6,0.8-0.6
		c1.6-0.1,3.2-0.1,4.8,0c0.3,0,0.6,0.5,0.9,0.7c-0.3,0.1-0.6,0.3-1,0.4C455.9,34.6,455.5,34.5,455,34.5z"/>
</g>
</svg>
